<?xml version="1.0" standalone="no"?>
<!DOCTYPE svg PUBLIC "-//W3C//DTD SVG 20010904//EN"
 "http://www.w3.org/TR/2001/REC-SVG-20010904/DTD/svg10.dtd">
<svg version="1.0" xmlns="http://www.w3.org/2000/svg"
 width="360.000000pt" height="292.000000pt" viewBox="0 0 360.000000 292.000000"
 preserveAspectRatio="xMidYMid meet">

<g transform="translate(0.000000,292.000000) scale(0.100000,-0.100000)"
fill="#000000" stroke="none">
<path d="M1650 2118 c-96 -11 -176 -21 -178 -23 -2 -2 17 -34 41 -71 41 -65
43 -71 31 -99 -17 -40 -17 -110 0 -143 12 -23 25 -30 76 -40 33 -7 87 -24 120
-39 l59 -25 30 21 c65 47 92 135 68 229 l-9 32 46 0 c63 0 60 21 -6 45 -29 10
-54 19 -56 20 -1 1 9 27 23 58 l25 57 -48 -1 c-26 -1 -126 -10 -222 -21z"/>
<path d="M2165 2005 c-14 -13 -25 -36 -25 -50 0 -88 113 -204 200 -205 14 0
39 -15 62 -37 35 -34 39 -36 54 -21 15 15 14 19 -12 53 -18 24 -30 55 -35 90
-9 71 -52 133 -117 168 -62 34 -96 34 -127 2z"/>
<path d="M2525 1620 c-16 -18 -16 -22 -3 -37 8 -10 49 -62 92 -115 42 -53 86
-100 97 -103 44 -14 66 50 33 100 -14 21 -186 175 -197 175 -2 0 -12 -9 -22
-20z"/>
<path d="M2085 1343 c-15 -16 -45 -54 -66 -85 -62 -90 -55 -88 -282 -88 -180
0 -198 -2 -186 -16 7 -8 31 -25 53 -37 36 -19 60 -22 198 -25 222 -5 246 9
307 191 32 95 26 110 -24 60z"/>
<path d="M1445 1300 c-15 -17 -16 -24 -7 -45 l12 -25 244 0 c134 0 251 3 260
6 23 9 21 61 -3 74 -12 6 -112 10 -254 10 -221 0 -235 -1 -252 -20z"/>
<path d="M1853 1049 c-44 -13 -90 -62 -103 -109 -19 -71 10 -137 78 -181 54
-34 79 -36 131 -9 98 50 130 158 70 241 -36 51 -113 77 -176 58z m100 -96 c8
-10 19 -30 22 -45 6 -22 1 -33 -23 -58 -36 -35 -60 -38 -96 -9 -33 26 -36 79
-6 109 25 25 81 26 103 3z"/>
<path d="M1508 733 c7 -3 16 -2 19 1 4 3 -2 6 -13 5 -11 0 -14 -3 -6 -6z"/>
</g>
</svg>
